<?xml version="1.0" encoding="utf-8"?>
<!-- Generator: Adobe Illustrator 26.0.1, SVG Export Plug-In . SVG Version: 6.00 Build 0)  -->
<svg version="1.1" id="Layer_1" xmlns="http://www.w3.org/2000/svg" xmlns:xlink="http://www.w3.org/1999/xlink" x="0px" y="0px"
	 viewBox="0 0 50 50" style="enable-background:new 0 0 50 50;" xml:space="preserve">
<style type="text/css">
	.st0{fill:#005BE2;}
</style>
<g>
	<g>
		<path d="M25,27.8c-4.6,0-8.3-3.7-8.3-8.3s3.7-8.3,8.3-8.3s8.3,3.7,8.3,8.3S29.6,27.8,25,27.8z M25,15.3c-2.3,0-4.2,1.9-4.2,4.2
			s1.9,4.2,4.2,4.2s4.2-1.9,4.2-4.2S27.3,15.3,25,15.3z"/>
	</g>
	<g>
		<path d="M26.5,50h-3l-13.8-15c-5.6-6.1-7.1-14.7-3.8-22.3C9.1,5.1,16.2,0.2,24.3,0c0.5,0,1,0,1.4,0c8.1,0.2,15.2,5.1,18.4,12.6
			c3.2,7.7,1.8,16.2-3.8,22.3L26.5,50z M25,4.1c-0.2,0-0.4,0-0.6,0C17.9,4.3,12.3,8.2,9.7,14.2c-2.6,6.2-1.4,13,3.1,18L25,45.6
			l12.3-13.4c4.5-4.9,5.7-11.8,3.1-18c-2.6-6-8.2-9.9-14.7-10.1C25.4,4.1,25.2,4.1,25,4.1z"/>
	</g>
</g>
</svg>
