<?xml version="1.0" encoding="utf-8"?>
<!-- Generator: Adobe Illustrator 26.0.1, SVG Export Plug-In . SVG Version: 6.00 Build 0)  -->
<svg version="1.1" id="Layer_1" xmlns="http://www.w3.org/2000/svg" xmlns:xlink="http://www.w3.org/1999/xlink" x="0px" y="0px"
	 viewBox="0 0 50 50" style="enable-background:new 0 0 50 50;" xml:space="preserve">
<style type="text/css">
	.st0{fill:#005BE2;}
</style>
<g>
	<path d="M37.5,41.7h-25c-3.3,0-6.5-1.3-8.8-3.7C1.3,35.6,0,32.5,0,29.2v-8.3c0-3.3,1.3-6.5,3.7-8.8C6,9.6,9.2,8.3,12.5,8.3h25
		c3.3,0,6.5,1.3,8.8,3.7c2.4,2.4,3.7,5.5,3.7,8.8v8.3c0,3.3-1.3,6.5-3.7,8.8C44,40.4,40.8,41.7,37.5,41.7z M12.5,12.5
		c-4.6,0-8.3,3.7-8.3,8.3v8.3c0,4.6,3.7,8.3,8.3,8.3h25c4.6,0,8.3-3.7,8.3-8.3v-8.3c0-4.6-3.7-8.3-8.3-8.3H12.5z"/>
</g>
<g>
	<polygon points="25,31.8 2.9,14.1 5.5,10.9 25,26.5 44.6,10.9 47.1,14.1 	"/>
</g>
<g>
	<rect x="1.1" y="28.1" transform="matrix(0.7071 -0.7071 0.7071 0.7071 -18.0173 16.9298)" width="20.6" height="4.1"/>
</g>
<g>
	<rect x="36.6" y="19.9" transform="matrix(0.7071 -0.7071 0.7071 0.7071 -10.0364 36.1973)" width="4.1" height="20.6"/>
</g>
</svg>
