<?xml version="1.0" encoding="utf-8"?>
<!-- Generator: Adobe Illustrator 26.0.1, SVG Export Plug-In . SVG Version: 6.00 Build 0)  -->
<svg version="1.1" id="Layer_1" xmlns="http://www.w3.org/2000/svg" xmlns:xlink="http://www.w3.org/1999/xlink" x="0px" y="0px"
	 viewBox="0 0 200 74.3" style="enable-background:new 0 0 200 74.3;" xml:space="preserve">
<style type="text/css">
	.st0{fill:#005BE2;}
</style>
<path class="st0" d="M0,54.2h9.3v2.1H2.2v4.9h6.5v2H2.2v6.3H0V54.2z"/>
<path class="st0" d="M15.9,57.6c3.3,0,5.5,2.5,5.5,6.1c0,3.6-2.2,6.1-5.5,6.1c-3.3,0-5.5-2.5-5.5-6.1C10.4,60,12.7,57.6,15.9,57.6z
	 M15.9,59.6c-2.1,0-3.4,1.6-3.4,4.1c0,2.5,1.3,4.1,3.4,4.1s3.4-1.6,3.4-4.1C19.3,61.1,18,59.6,15.9,59.6z"/>
<path class="st0" d="M23.4,57.9h2v0.9h0c0.5-0.7,1.3-1.1,2.4-1.1c0.4,0,0.9,0.1,1.3,0.2L28.7,60c-0.4-0.1-0.8-0.2-1.2-0.2
	c-1.3,0-2,0.9-2,2.9v6.7h-2.1V57.9z"/>
<path class="st0" d="M30.4,57.9h2v0.9h0c0.4-0.4,0.8-0.7,1.3-0.9c0.5-0.2,1-0.3,1.6-0.3c0.6,0,1.1,0.1,1.7,0.4
	c0.5,0.2,1,0.6,1.3,1.1h0c0.4-0.4,0.9-0.8,1.4-1.1c0.5-0.2,1.1-0.4,1.7-0.4c2.3,0,4.1,1.6,4.1,3.9v7.9h-2.1v-7.6
	c0-1.4-0.9-2.3-2.3-2.3S39,60.5,39,62v7.4h-2v-7.6c0-1.4-0.9-2.3-2.2-2.3c-1.4,0-2.3,1-2.3,2.4v7.4h-2.1V57.9z"/>
<path class="st0" d="M52.9,57.6c3.1,0,5.2,2.4,5.2,5.8v0.9h-8.4c0,0.9,0.3,1.8,0.9,2.6c0.3,0.3,0.6,0.6,1,0.8
	c0.4,0.2,0.8,0.3,1.3,0.2c1.5,0,2.3-0.6,3.3-2.1l1.6,1.1c-1,1.9-2.7,2.9-4.9,2.9c-3.2,0-5.3-2.5-5.3-6.1
	C47.5,60,49.7,57.6,52.9,57.6z M56,62.7c-0.1-1.9-1.3-3.2-3.1-3.2c-0.8,0-1.6,0.4-2.2,1c-0.6,0.6-0.9,1.4-0.9,2.2H56z"/>
<path class="st0" d="M60,57.9h2v0.9h0c0.5-0.7,1.3-1.1,2.4-1.1c0.4,0,0.9,0.1,1.3,0.2L65.3,60c-0.4-0.1-0.8-0.2-1.2-0.2
	c-1.3,0-2,0.9-2,2.9v6.7H60L60,57.9z"/>
<path class="st0" d="M67.1,53.6h2.1v15.8h-2.1V53.6z"/>
<path class="st0" d="M74.8,68.5l-4.4-10.6h2.2l3.3,8.2h0l3.3-8.2h2.2l-6.8,16.4h-2.2L74.8,68.5z"/>
<path class="st0" d="M87,54.2h2.2v7.4h0l6-7.4H98l-5.6,6.7l6.1,8.5h-2.7L91,62.6h0l-1.7,2.1v4.7H87V54.2z"/>
<path class="st0" d="M103.7,57.6c3.1,0,5.2,2.4,5.2,5.8v0.9h-8.4c0,0.9,0.3,1.8,0.9,2.6c0.3,0.3,0.6,0.6,1,0.8
	c0.4,0.2,0.8,0.3,1.3,0.2c1.5,0,2.3-0.6,3.3-2.1l1.6,1.1c-1,1.9-2.7,2.9-4.9,2.9c-3.2,0-5.3-2.5-5.3-6.1
	C98.4,60,100.6,57.6,103.7,57.6z M106.8,62.7c-0.1-1.9-1.3-3.2-3.1-3.2c-0.8,0-1.6,0.4-2.2,1c-0.6,0.6-0.9,1.4-0.9,2.2H106.8z"/>
<path class="st0" d="M115.7,57.6c3.1,0,5.2,2.4,5.2,5.8v0.9h-8.4c0,0.9,0.3,1.8,0.9,2.6c0.3,0.3,0.6,0.6,1,0.8
	c0.4,0.2,0.8,0.3,1.3,0.2c1.5,0,2.3-0.6,3.3-2.1l1.7,1.1c-1,1.9-2.7,2.9-4.9,2.9c-3.2,0-5.3-2.5-5.3-6.1
	C110.4,60,112.5,57.6,115.7,57.6z M118.8,62.7c-0.1-1.9-1.3-3.2-3.1-3.2c-0.8,0-1.6,0.4-2.2,1c-0.6,0.6-0.9,1.4-0.9,2.2H118.8z"/>
<path class="st0" d="M122.8,57.9h2.1V59h0c0.4-0.4,0.9-0.8,1.5-1c0.6-0.2,1.2-0.4,1.8-0.3c3,0,5.2,2.5,5.2,6.1s-2.2,6.1-5.1,6.1
	c-0.6,0-1.2-0.1-1.8-0.3c-0.6-0.2-1.1-0.6-1.5-1h0v5.9h-2.1V57.9z M128.1,59.6c-0.4,0-0.8,0.1-1.2,0.2c-0.4,0.2-0.7,0.4-1,0.7
	c-0.3,0.3-0.5,0.6-0.7,1c-0.2,0.4-0.2,0.8-0.2,1.2v2c0,0.4,0.1,0.8,0.2,1.2c0.2,0.4,0.4,0.7,0.7,1c0.3,0.3,0.6,0.5,1,0.7
	c0.4,0.2,0.8,0.2,1.2,0.2c2,0,3.3-1.6,3.3-4.1S130,59.6,128.1,59.6L128.1,59.6z"/>
<path class="st0" d="M137.1,56.3h-4.6v-2.1h11.5v2.1h-4.6v13.1h-2.2L137.1,56.3z"/>
<path class="st0" d="M143.6,57.9h2v0.9h0c0.5-0.7,1.3-1.1,2.4-1.1c0.4,0,0.9,0.1,1.3,0.2l-0.4,2.1c-0.4-0.1-0.8-0.2-1.2-0.2
	c-1.3,0-2,0.9-2,2.9v6.7h-2.1V57.9z"/>
<path class="st0" d="M150.6,57.9h2.1V65c0,1.8,0.8,2.8,2.6,2.8c1.6,0,2.6-1.1,2.6-2.8v-7.1h2.1v11.5h-2v-1h-0.1
	c-0.7,0.8-2,1.3-3.3,1.3c-2.6,0-4.1-1.6-4.1-4.3L150.6,57.9z"/>
<path class="st0" d="M167.4,57.6c1.2,0,2.4,0.4,3.4,1.2c0.9,0.8,1.5,1.9,1.7,3.1l-2,0.4c-0.3-1.7-1.4-2.6-3-2.6
	c-2,0-3.3,1.6-3.3,4.1c0,2.5,1.3,4.1,3.3,4.1c1.6,0,2.7-0.9,3-2.6l2,0.4c-0.2,1.2-0.8,2.3-1.7,3.1c-0.9,0.8-2.1,1.2-3.4,1.1
	c-3.2,0-5.4-2.5-5.4-6.1C162,60,164.2,57.6,167.4,57.6z"/>
<path class="st0" d="M174.3,53.6h2.1v9.2h0l4.5-4.9h2.9l-4.2,4.5l4.5,7h-2.5l-3.4-5.5h0l-1.7,1.8v3.7h-2.1V53.6z"/>
<path class="st0" d="M185.3,53.7h2.3v2.2h-2.3V53.7z M185.4,57.9h2.1v11.5h-2.1L185.4,57.9z"/>
<path class="st0" d="M189.9,57.9h2v1h0c0.4-0.4,0.9-0.8,1.5-1c0.5-0.2,1.1-0.3,1.7-0.3c2.6,0,4.3,1.7,4.3,4.4v7.4h-2.1v-7.1
	c0-1.7-1-2.8-2.6-2.8c-1.6,0-2.7,1.1-2.7,2.8v7.1h-2.1V57.9z"/>
<path d="M129.8,0.1H121V8h8.8V0.1z"/>
<path d="M109.5,38.1V19.1h7.7v-7.7h-7.7V0.1h-8.8v11.4h-5v7.7h5v26.8h16.5V38L109.5,38.1z"/>
<path d="M34,11.5H23.4L7.7,38.1H0v7.9h12.3l12.9-21.8v21.8h10.4l12.8-21.8v21.8h8.8V11.5H46.6L34,32.8V11.5z"/>
<path d="M129.8,11.5H121v34.4h8.8V11.5L129.8,11.5z"/>
<path d="M129.8,0.1H121V8h8.8V0.1z"/>
<path d="M77.8,11.1L77.8,11.1c-9.5,0-17.1,7.9-17.1,17.6c0,9.8,7.6,17.6,17.1,17.6h0.1c9.5,0,17-7.9,17-17.6S87.3,11.1,77.8,11.1z
	 M77.8,37.5L77.8,37.5c-4.7,0-8.3-3.9-8.3-8.8c0-4.9,3.6-8.8,8.3-8.8h0.1c4.5,0,8.2,4,8.2,8.8C86,33.6,82.4,37.5,77.8,37.5
	L77.8,37.5z"/>
<path d="M184.2,38.5c3.5,0,5.7-2.1,6.3-3.9h8.8c-0.3,2.9-4.1,11.7-15.2,11.7c-10,0-17.3-7.5-17.3-17.6c0-10,7.6-17.6,17-17.6
	c9,0,16,7.9,16,17.5c0,1-0.1,1.9-0.1,2.6H176C176.6,35.4,179.1,38.5,184.2,38.5z M176.2,24.9h15.1c-0.9-3.5-3.3-6-7.3-6
	C179.7,18.9,177.2,21.3,176.2,24.9L176.2,24.9z"/>
<path d="M159.2,11.5L150.8,34l-8.4-22.5H133l13.3,34.4h8.9l13.4-34.4L159.2,11.5C159.2,11.5,159.2,11.5,159.2,11.5z"/>
</svg>
