<?xml version="1.0" encoding="utf-8"?>
<!-- Generator: Adobe Illustrator 26.0.1, SVG Export Plug-In . SVG Version: 6.00 Build 0)  -->
<svg version="1.1" id="Layer_1" xmlns="http://www.w3.org/2000/svg" xmlns:xlink="http://www.w3.org/1999/xlink" x="0px" y="0px"
	 viewBox="0 0 50 50" style="enable-background:new 0 0 50 50;" xml:space="preserve">
<style type="text/css">
	.st0{fill:#005BE2;}
</style>
<g>
	<path d="M37.9,49C37.9,49,37.8,49,37.9,49c-6.7,0-15.6-4.9-23.8-13.1C5.9,27.7,1,18.8,1,12.1C1,6.4,5.7,1.4,11.2,1.4
		c0,0,0.1,0,0.1,0c2.4,0,4.5,1.7,5.1,4l2,7.2c0.5,1.9,0.3,3.8-0.5,5.6l-1.1,2.6c-0.2,0.5-0.2,1,0.1,1.4c1,1.5,2.9,4.2,4.8,6.1
		c1.9,1.9,4.7,3.8,6.1,4.8c0.4,0.3,1,0.3,1.4,0.1l2.6-1.2c1.7-0.8,3.7-1,5.6-0.5l7.2,2c2.3,0.6,4,2.8,4,5.2c0,0,0,0.1,0,0.1
		C48.6,44.2,43.6,49,37.9,49C37.9,49,37.9,49,37.9,49z M11.2,5.5c-2.9,0-6.1,2.8-6.1,6.6C5.1,17.6,9.7,25.8,17,33
		c7.2,7.2,15.4,11.9,20.9,11.9c0,0,0,0,0.1,0c3.8,0,6.6-3.2,6.6-6.1c0-0.6-0.4-1.1-1-1.3l-7.2-2c-0.9-0.2-1.9-0.2-2.7,0.3
		c0,0,0,0-0.1,0L30.9,37c-1.8,0.8-3.8,0.6-5.4-0.4c-2-1.3-4.7-3.3-6.8-5.3c-2-2-4-4.8-5.3-6.8c-1-1.6-1.2-3.6-0.5-5.3l1.2-2.7
		c0,0,0-0.1,0-0.1c0.4-0.9,0.5-1.8,0.3-2.7l-2-7.2C12.3,5.9,11.8,5.5,11.2,5.5z"/>
</g>
</svg>
